<svg width="407" height="62" viewBox="0 0 407 62" fill="none" xmlns="http://www.w3.org/2000/svg">
<g clip-path="url(#clip0_10231_6160)">
<mask id="mask0_10231_6160" style="mask-type:luminance" maskUnits="userSpaceOnUse" x="0" y="0" width="36" height="62">
<path d="M36 0.5H0V61.5H36V0.5Z" fill="white"/>
</mask>
<g mask="url(#mask0_10231_6160)">
<path fill-rule="evenodd" clip-rule="evenodd" d="M2.05714 2.55618H33.9429V59.4439H2.05714V2.55618ZM0 0.5H2.05714H33.9429H36V2.55618V59.4439V61.5H33.9429H2.05714H0V59.4439V2.55618V0.5ZM14.0571 8.72472C10.2701 8.72472 7.2 11.7933 7.2 15.5787C7.2 18.6471 9.21744 21.2448 11.9988 22.1184C9.21744 22.9921 7.2 25.5897 7.2 28.6582V44.9364C7.2 48.7215 10.2701 51.7904 14.0571 51.7904C17.8442 51.7904 20.9143 48.7215 20.9143 44.9364V28.6582C20.9143 25.5897 18.8968 22.9921 16.1155 22.1184C18.8968 21.2448 20.9143 18.6471 20.9143 15.5787C20.9143 11.7933 17.8442 8.72472 14.0571 8.72472ZM17.9833 52.1314C21.6989 52.0491 24.6857 49.0129 24.6857 45.2791V29.0009C24.6857 25.9324 22.6683 23.3349 19.8869 22.4612C22.6683 21.5874 24.6857 18.9898 24.6857 15.9213C24.6857 13.4629 23.3907 11.3067 21.4454 10.0972C21.4968 10.0961 21.5483 10.0955 21.6 10.0955C25.3871 10.0955 28.4572 13.1641 28.4572 16.9495C28.4572 20.0179 26.4398 22.6156 23.6583 23.4892C26.4398 24.3629 28.4572 26.9605 28.4572 30.029V46.3072C28.4572 50.0923 25.3871 53.1612 21.6 53.1612C20.2726 53.1612 19.0332 52.7838 17.9833 52.1314Z" fill="#00ADEF"/>
</g>
</g>
<path d="M51.6445 27V25.4961L53.1973 25.2031V14.5879L51.6445 14.2949V12.7812H57.2012V14.2949L55.6582 14.5879V25.2031L57.2012 25.4961V27H51.6445ZM58.4512 27V25.4961L59.916 25.2031V18.2402L58.373 17.9473V16.4336H62.1816L62.3086 17.9668C62.6602 17.4199 63.0964 16.9967 63.6172 16.6973C64.1445 16.3913 64.7402 16.2383 65.4043 16.2383C66.4915 16.2383 67.3379 16.5736 67.9434 17.2441C68.5488 17.9082 68.8516 18.9499 68.8516 20.3691V25.2031L70.3164 25.4961V27H65.0137V25.4961L66.3906 25.2031V20.3887C66.3906 19.5879 66.2311 19.0215 65.9121 18.6895C65.5931 18.3509 65.1178 18.1816 64.4863 18.1816C64.0111 18.1816 63.5944 18.2891 63.2363 18.5039C62.8848 18.7122 62.5983 19.0052 62.377 19.3828V25.2031L63.7148 25.4961V27H58.4512ZM75.4141 27.2051C74.5612 27.2051 73.832 26.9902 73.2266 26.5605C72.6211 26.1309 72.1556 25.5319 71.8301 24.7637C71.5111 23.9889 71.3516 23.0872 71.3516 22.0586V21.8535C71.3516 20.7272 71.5111 19.7441 71.8301 18.9043C72.1556 18.0645 72.6211 17.4102 73.2266 16.9414C73.8385 16.4727 74.5645 16.2383 75.4043 16.2383C76.0098 16.2383 76.5371 16.3555 76.9863 16.5898C77.4421 16.8177 77.8327 17.1465 78.1582 17.5762V13.5723L76.6055 13.2793V11.7656H78.1582H80.6191V25.2031L82.084 25.4961V27H78.4902L78.2949 25.7207C77.9629 26.209 77.556 26.5801 77.0742 26.834C76.599 27.0814 76.0456 27.2051 75.4141 27.2051ZM76.1074 25.2617C76.5762 25.2617 76.9798 25.1608 77.3184 24.959C77.6569 24.7507 77.9368 24.4512 78.1582 24.0605V19.4023C77.9434 19.0247 77.6634 18.7285 77.3184 18.5137C76.9798 18.2923 76.5827 18.1816 76.127 18.1816C75.5931 18.1816 75.1536 18.3379 74.8086 18.6504C74.4701 18.9564 74.2194 19.3861 74.0566 19.9395C73.8939 20.4863 73.8125 21.1243 73.8125 21.8535V22.0586C73.8125 23.0352 73.9915 23.8132 74.3496 24.3926C74.7142 24.972 75.3001 25.2617 76.1074 25.2617ZM83.0898 27V25.4961L84.5547 25.2031V18.2402L83.002 17.9473V16.4336H87.0156V25.2031L88.4707 25.4961V27H83.0898ZM84.457 14.041V11.7656H87.0156V14.041H84.457ZM93.0801 27.2051C92.0059 27.2051 91.1693 26.9284 90.5703 26.375C89.9714 25.8216 89.6719 25.0599 89.6719 24.0898C89.6719 23.0938 90.0788 22.2865 90.8926 21.668C91.7064 21.0495 92.8685 20.7402 94.3789 20.7402H95.9902V19.8516C95.9902 19.2917 95.821 18.8457 95.4824 18.5137C95.1504 18.1816 94.6654 18.0156 94.0273 18.0156C93.6628 18.0156 93.3405 18.0612 93.0605 18.1523C92.7806 18.237 92.5299 18.3607 92.3086 18.5234L92.084 19.9492H90.2773L90.2578 17.3418C90.7786 17.0033 91.3581 16.7363 91.9961 16.541C92.6341 16.3392 93.3438 16.2383 94.125 16.2383C95.4661 16.2383 96.5208 16.554 97.2891 17.1855C98.0638 17.8105 98.4512 18.709 98.4512 19.8809V24.5391C98.4512 24.6823 98.4512 24.8223 98.4512 24.959C98.4577 25.0957 98.4674 25.2292 98.4805 25.3594L99.5547 25.4961V27H96.3418C96.2767 26.7721 96.2148 26.5508 96.1562 26.3359C96.1042 26.1211 96.0651 25.9062 96.0391 25.6914C95.6875 26.1341 95.2611 26.4987 94.7598 26.7852C94.265 27.0651 93.7051 27.2051 93.0801 27.2051ZM93.6367 25.3008C94.1315 25.3008 94.5938 25.1868 95.0234 24.959C95.4531 24.7246 95.7754 24.4316 95.9902 24.0801V22.3125H94.3496C93.6139 22.3125 93.0573 22.485 92.6797 22.8301C92.3086 23.1686 92.123 23.5658 92.123 24.0215C92.123 24.4316 92.2533 24.7474 92.5137 24.9688C92.7741 25.1901 93.1484 25.3008 93.6367 25.3008ZM100.697 27V25.4961L102.162 25.2031V18.2402L100.619 17.9473V16.4336H104.428L104.555 17.9668C104.906 17.4199 105.342 16.9967 105.863 16.6973C106.391 16.3913 106.986 16.2383 107.65 16.2383C108.738 16.2383 109.584 16.5736 110.189 17.2441C110.795 17.9082 111.098 18.9499 111.098 20.3691V25.2031L112.562 25.4961V27H107.26V25.4961L108.637 25.2031V20.3887C108.637 19.5879 108.477 19.0215 108.158 18.6895C107.839 18.3509 107.364 18.1816 106.732 18.1816C106.257 18.1816 105.84 18.2891 105.482 18.5039C105.131 18.7122 104.844 19.0052 104.623 19.3828V25.2031L105.961 25.4961V27H100.697ZM118.598 27V25.4961L120.15 25.2031V14.5879L118.598 14.2949V12.7812H124.154V14.2949L122.611 14.5879V25.2031L124.154 25.4961V27H118.598ZM125.404 27V25.4961L126.869 25.2031V18.2402L125.326 17.9473V16.4336H129.135L129.262 17.9668C129.613 17.4199 130.049 16.9967 130.57 16.6973C131.098 16.3913 131.693 16.2383 132.357 16.2383C133.445 16.2383 134.291 16.5736 134.896 17.2441C135.502 17.9082 135.805 18.9499 135.805 20.3691V25.2031L137.27 25.4961V27H131.967V25.4961L133.344 25.2031V20.3887C133.344 19.5879 133.184 19.0215 132.865 18.6895C132.546 18.3509 132.071 18.1816 131.439 18.1816C130.964 18.1816 130.548 18.2891 130.189 18.5039C129.838 18.7122 129.551 19.0052 129.33 19.3828V25.2031L130.668 25.4961V27H125.404ZM142.807 27.2051C142.051 27.2051 141.345 27.1335 140.688 26.9902C140.036 26.8405 139.382 26.6224 138.725 26.3359L138.695 23.543H140.463L140.834 25.0664C141.114 25.1901 141.4 25.2878 141.693 25.3594C141.993 25.4245 142.325 25.457 142.689 25.457C143.393 25.457 143.887 25.3333 144.174 25.0859C144.467 24.8385 144.613 24.5326 144.613 24.168C144.613 23.8164 144.46 23.5169 144.154 23.2695C143.855 23.0156 143.279 22.7975 142.426 22.6152C141.163 22.3418 140.232 21.9447 139.633 21.4238C139.04 20.8965 138.744 20.2129 138.744 19.373C138.744 18.7936 138.897 18.2695 139.203 17.8008C139.516 17.332 139.971 16.9577 140.57 16.6777C141.176 16.3913 141.918 16.248 142.797 16.248C143.598 16.248 144.307 16.3327 144.926 16.502C145.551 16.6647 146.081 16.8828 146.518 17.1562L146.576 19.8418H144.828L144.525 18.4453C144.324 18.3021 144.089 18.1914 143.822 18.1133C143.555 18.0352 143.249 17.9961 142.904 17.9961C142.364 17.9961 141.938 18.1165 141.625 18.3574C141.312 18.5918 141.156 18.888 141.156 19.2461C141.156 19.4544 141.205 19.6432 141.303 19.8125C141.407 19.9818 141.602 20.138 141.889 20.2812C142.182 20.418 142.608 20.5514 143.168 20.6816C144.542 21.0007 145.525 21.4173 146.117 21.9316C146.71 22.446 147.006 23.1263 147.006 23.9727C147.006 24.9167 146.661 25.6914 145.971 26.2969C145.281 26.9023 144.226 27.2051 142.807 27.2051ZM152.416 27.1855C151.518 27.1855 150.818 26.9349 150.316 26.4336C149.815 25.9258 149.564 25.1185 149.564 24.0117V18.1914H148.021V16.4336H149.564V13.8652H152.016V16.4336H154.105V18.1914H152.016V24.0117C152.016 24.4609 152.107 24.7897 152.289 24.998C152.478 25.1999 152.732 25.3008 153.051 25.3008C153.233 25.3008 153.435 25.2845 153.656 25.252C153.884 25.2194 154.066 25.1868 154.203 25.1543L154.457 26.8828C154.171 26.9674 153.842 27.0391 153.471 27.0977C153.106 27.1562 152.755 27.1855 152.416 27.1855ZM155.668 27V25.4961L157.133 25.2031V18.2402L155.58 17.9473V16.4336H159.594V25.2031L161.049 25.4961V27H155.668ZM157.035 14.041V11.7656H159.594V14.041H157.035ZM166.146 27.1855C165.248 27.1855 164.548 26.9349 164.047 26.4336C163.546 25.9258 163.295 25.1185 163.295 24.0117V18.1914H161.752V16.4336H163.295V13.8652H165.746V16.4336H167.836V18.1914H165.746V24.0117C165.746 24.4609 165.837 24.7897 166.02 24.998C166.208 25.1999 166.462 25.3008 166.781 25.3008C166.964 25.3008 167.165 25.2845 167.387 25.252C167.615 25.2194 167.797 25.1868 167.934 25.1543L168.188 26.8828C167.901 26.9674 167.572 27.0391 167.201 27.0977C166.837 27.1562 166.485 27.1855 166.146 27.1855ZM173.891 27.2051C172.758 27.2051 171.872 26.847 171.234 26.1309C170.603 25.4082 170.287 24.2884 170.287 22.7715V18.2402L169.096 17.9473V16.4336H170.287H172.748V22.791C172.748 23.7025 172.891 24.3438 173.178 24.7148C173.471 25.0794 173.92 25.2617 174.525 25.2617C175.059 25.2617 175.512 25.1576 175.883 24.9492C176.26 24.7344 176.56 24.4316 176.781 24.041V18.2402L175.453 17.9473V16.4336H176.781H179.242V25.2031L180.492 25.4961V27H177.064L176.898 25.5645C176.566 26.0918 176.143 26.4987 175.629 26.7852C175.121 27.0651 174.542 27.2051 173.891 27.2051ZM185.639 27.1855C184.74 27.1855 184.04 26.9349 183.539 26.4336C183.038 25.9258 182.787 25.1185 182.787 24.0117V18.1914H181.244V16.4336H182.787V13.8652H185.238V16.4336H187.328V18.1914H185.238V24.0117C185.238 24.4609 185.329 24.7897 185.512 24.998C185.701 25.1999 185.954 25.3008 186.273 25.3008C186.456 25.3008 186.658 25.2845 186.879 25.252C187.107 25.2194 187.289 25.1868 187.426 25.1543L187.68 26.8828C187.393 26.9674 187.064 27.0391 186.693 27.0977C186.329 27.1562 185.977 27.1855 185.639 27.1855ZM193.568 27.2051C192.572 27.2051 191.703 26.9837 190.961 26.541C190.225 26.0918 189.652 25.4733 189.242 24.6855C188.839 23.8978 188.637 22.9961 188.637 21.9805V21.5703C188.637 20.5417 188.835 19.627 189.232 18.8262C189.636 18.0254 190.189 17.3939 190.893 16.9316C191.596 16.4694 192.396 16.2383 193.295 16.2383C194.252 16.2383 195.053 16.4303 195.697 16.8145C196.348 17.1986 196.84 17.7454 197.172 18.4551C197.504 19.1582 197.67 20.0046 197.67 20.9941V22.4004H191.186L191.166 22.4492C191.192 23.0026 191.306 23.4941 191.508 23.9238C191.716 24.3535 192.009 24.6921 192.387 24.9395C192.771 25.1868 193.236 25.3105 193.783 25.3105C194.356 25.3105 194.877 25.2324 195.346 25.0762C195.814 24.9199 196.247 24.6986 196.645 24.4121L197.416 25.9551C196.999 26.3066 196.469 26.6029 195.824 26.8438C195.18 27.0846 194.428 27.2051 193.568 27.2051ZM191.225 20.6719H195.316V20.418C195.316 19.9557 195.245 19.5521 195.102 19.207C194.965 18.8555 194.747 18.582 194.447 18.3867C194.154 18.1914 193.78 18.0938 193.324 18.0938C192.927 18.0938 192.579 18.2044 192.279 18.4258C191.98 18.6471 191.739 18.9499 191.557 19.334C191.381 19.7116 191.26 20.1413 191.195 20.623L191.225 20.6719ZM208.93 27.2051C207.914 27.2051 207.042 26.9772 206.312 26.5215C205.583 26.0658 205.023 25.4342 204.633 24.627C204.242 23.8132 204.047 22.8789 204.047 21.8242V21.6191C204.047 20.571 204.242 19.6432 204.633 18.8359C205.023 18.0286 205.583 17.3939 206.312 16.9316C207.042 16.4694 207.908 16.2383 208.91 16.2383C209.926 16.2383 210.798 16.4694 211.527 16.9316C212.257 17.3874 212.816 18.0189 213.207 18.8262C213.598 19.6335 213.793 20.5645 213.793 21.6191V21.8242C213.793 22.8789 213.598 23.8132 213.207 24.627C212.816 25.4342 212.257 26.0658 211.527 26.5215C210.805 26.9772 209.939 27.2051 208.93 27.2051ZM208.93 25.3105C209.477 25.3105 209.926 25.1641 210.277 24.8711C210.635 24.5716 210.902 24.1615 211.078 23.6406C211.254 23.1133 211.342 22.5078 211.342 21.8242V21.6191C211.342 20.9421 211.254 20.3431 211.078 19.8223C210.902 19.3014 210.635 18.8913 210.277 18.5918C209.919 18.2923 209.464 18.1426 208.91 18.1426C208.37 18.1426 207.921 18.2923 207.562 18.5918C207.204 18.8913 206.938 19.3014 206.762 19.8223C206.592 20.3431 206.508 20.9421 206.508 21.6191V21.8242C206.508 22.5078 206.592 23.1133 206.762 23.6406C206.938 24.1615 207.204 24.5716 207.562 24.8711C207.927 25.1641 208.383 25.3105 208.93 25.3105ZM215.229 27V25.4961L216.703 25.2031V18.1914H215.092V16.4336H216.703V15.1934C216.703 14.0345 217.022 13.1393 217.66 12.5078C218.305 11.8763 219.203 11.5605 220.355 11.5605C220.622 11.5605 220.909 11.5833 221.215 11.6289C221.521 11.668 221.801 11.7201 222.055 11.7852L221.811 13.6309C221.674 13.5983 221.505 13.5723 221.303 13.5527C221.101 13.5267 220.902 13.5137 220.707 13.5137C220.186 13.5137 219.796 13.6569 219.535 13.9434C219.281 14.2298 219.154 14.6465 219.154 15.1934V16.4336H221.518V18.1914H219.154V25.2031L221 25.4961V27H215.229ZM227.582 27V25.4961L229.135 25.2031V14.5879L227.582 14.2949V12.7812H229.135H233.822C235.417 12.7812 236.661 13.1068 237.553 13.7578C238.451 14.4023 238.9 15.3691 238.9 16.6582C238.9 17.3027 238.715 17.8822 238.344 18.3965C237.973 18.9043 237.458 19.2819 236.801 19.5293C237.374 19.653 237.855 19.8776 238.246 20.2031C238.637 20.5286 238.933 20.9258 239.135 21.3945C239.343 21.8568 239.447 22.3646 239.447 22.918C239.447 24.2526 239.008 25.2682 238.129 25.9648C237.257 26.6549 236.039 27 234.477 27H227.582ZM231.596 25.1055H234.477C235.284 25.1055 235.902 24.9199 236.332 24.5488C236.768 24.1712 236.986 23.6276 236.986 22.918C236.986 22.1693 236.801 21.5866 236.43 21.1699C236.065 20.7533 235.495 20.5449 234.721 20.5449H231.596V25.1055ZM231.596 18.7773H234.096C234.825 18.7773 235.398 18.6016 235.814 18.25C236.231 17.8984 236.439 17.4069 236.439 16.7754C236.439 16.0658 236.218 15.5417 235.775 15.2031C235.333 14.8581 234.682 14.6855 233.822 14.6855H231.596V18.7773ZM244.135 27.2051C243.061 27.2051 242.224 26.9284 241.625 26.375C241.026 25.8216 240.727 25.0599 240.727 24.0898C240.727 23.0938 241.133 22.2865 241.947 21.668C242.761 21.0495 243.923 20.7402 245.434 20.7402H247.045V19.8516C247.045 19.2917 246.876 18.8457 246.537 18.5137C246.205 18.1816 245.72 18.0156 245.082 18.0156C244.717 18.0156 244.395 18.0612 244.115 18.1523C243.835 18.237 243.585 18.3607 243.363 18.5234L243.139 19.9492H241.332L241.312 17.3418C241.833 17.0033 242.413 16.7363 243.051 16.541C243.689 16.3392 244.398 16.2383 245.18 16.2383C246.521 16.2383 247.576 16.554 248.344 17.1855C249.118 17.8105 249.506 18.709 249.506 19.8809V24.5391C249.506 24.6823 249.506 24.8223 249.506 24.959C249.512 25.0957 249.522 25.2292 249.535 25.3594L250.609 25.4961V27H247.396C247.331 26.7721 247.27 26.5508 247.211 26.3359C247.159 26.1211 247.12 25.9062 247.094 25.6914C246.742 26.1341 246.316 26.4987 245.814 26.7852C245.32 27.0651 244.76 27.2051 244.135 27.2051ZM244.691 25.3008C245.186 25.3008 245.648 25.1868 246.078 24.959C246.508 24.7246 246.83 24.4316 247.045 24.0801V22.3125H245.404C244.669 22.3125 244.112 22.485 243.734 22.8301C243.363 23.1686 243.178 23.5658 243.178 24.0215C243.178 24.4316 243.308 24.7474 243.568 24.9688C243.829 25.1901 244.203 25.3008 244.691 25.3008ZM251.752 27V25.4961L253.217 25.2031V18.2402L251.674 17.9473V16.4336H255.482L255.609 17.9668C255.961 17.4199 256.397 16.9967 256.918 16.6973C257.445 16.3913 258.041 16.2383 258.705 16.2383C259.792 16.2383 260.639 16.5736 261.244 17.2441C261.85 17.9082 262.152 18.9499 262.152 20.3691V25.2031L263.617 25.4961V27H258.314V25.4961L259.691 25.2031V20.3887C259.691 19.5879 259.532 19.0215 259.213 18.6895C258.894 18.3509 258.419 18.1816 257.787 18.1816C257.312 18.1816 256.895 18.2891 256.537 18.5039C256.186 18.7122 255.899 19.0052 255.678 19.3828V25.2031L257.016 25.4961V27H251.752ZM264.594 27V25.4961L266.068 25.2031V13.5723L264.506 13.2793V11.7656H268.52V25.2031L269.896 25.4961V27H264.594ZM271.342 27V25.5449L272.27 25.3789L272.24 25.3398L269.74 22.0391L271.215 20.3105L275.014 25.2227L276.42 25.4961V27H271.342ZM268.285 24.041L267.191 22.4785L271.781 18.123L271.811 18.084L270.707 17.9375V16.4336H275.805V17.9473L274.447 18.2598L268.285 24.041ZM277.387 27V25.4961L278.852 25.2031V18.2402L277.299 17.9473V16.4336H281.312V25.2031L282.768 25.4961V27H277.387ZM278.754 14.041V11.7656H281.312V14.041H278.754ZM283.822 27V25.4961L285.287 25.2031V18.2402L283.744 17.9473V16.4336H287.553L287.68 17.9668C288.031 17.4199 288.467 16.9967 288.988 16.6973C289.516 16.3913 290.111 16.2383 290.775 16.2383C291.863 16.2383 292.709 16.5736 293.314 17.2441C293.92 17.9082 294.223 18.9499 294.223 20.3691V25.2031L295.688 25.4961V27H290.385V25.4961L291.762 25.2031V20.3887C291.762 19.5879 291.602 19.0215 291.283 18.6895C290.964 18.3509 290.489 18.1816 289.857 18.1816C289.382 18.1816 288.965 18.2891 288.607 18.5039C288.256 18.7122 287.969 19.0052 287.748 19.3828V25.2031L289.086 25.4961V27H283.822ZM301.332 31.2676C300.811 31.2676 300.232 31.196 299.594 31.0527C298.962 30.916 298.406 30.724 297.924 30.4766L298.432 28.6797C298.848 28.8685 299.307 29.0215 299.809 29.1387C300.31 29.2559 300.785 29.3145 301.234 29.3145C302.042 29.3145 302.631 29.0898 303.002 28.6406C303.38 28.1979 303.568 27.5697 303.568 26.7559V25.9258C303.243 26.3424 302.855 26.6615 302.406 26.8828C301.957 27.0977 301.443 27.2051 300.863 27.2051C300.004 27.2051 299.262 26.9902 298.637 26.5605C298.018 26.1309 297.543 25.5286 297.211 24.7539C296.885 23.9792 296.723 23.0807 296.723 22.0586V21.8535C296.723 20.7272 296.885 19.7441 297.211 18.9043C297.543 18.0645 298.015 17.4102 298.627 16.9414C299.245 16.4727 299.981 16.2383 300.834 16.2383C301.479 16.2383 302.038 16.3717 302.514 16.6387C302.989 16.8991 303.393 17.2734 303.725 17.7617L303.91 16.4336H306.029V26.7656C306.029 27.6836 305.844 28.4779 305.473 29.1484C305.102 29.8255 304.564 30.3464 303.861 30.7109C303.158 31.082 302.315 31.2676 301.332 31.2676ZM301.527 25.2617C302.003 25.2617 302.406 25.1608 302.738 24.959C303.077 24.7572 303.354 24.4642 303.568 24.0801V19.373C303.354 19.002 303.077 18.7122 302.738 18.5039C302.4 18.2891 301.999 18.1816 301.537 18.1816C300.997 18.1816 300.551 18.3379 300.199 18.6504C299.854 18.9564 299.597 19.3861 299.428 19.9395C299.265 20.4863 299.184 21.1243 299.184 21.8535V22.0586C299.184 23.0352 299.369 23.8132 299.74 24.3926C300.118 24.972 300.714 25.2617 301.527 25.2617ZM305.697 18.2891L304.662 16.4336H307.299V17.9473L305.697 18.2891ZM317.699 27.2051C316.762 27.2051 315.945 27.0358 315.248 26.6973C314.551 26.3522 314.011 25.877 313.627 25.2715C313.249 24.666 313.061 23.9661 313.061 23.1719C313.061 22.4167 313.266 21.7591 313.676 21.1992C314.092 20.6393 314.714 20.0697 315.541 19.4902C315.574 19.4707 315.603 19.4512 315.629 19.4316C315.655 19.4121 315.681 19.3958 315.707 19.3828C315.238 18.7578 314.887 18.1979 314.652 17.7031C314.424 17.2018 314.311 16.6908 314.311 16.1699C314.311 15.4277 314.464 14.7897 314.77 14.2559C315.076 13.7155 315.508 13.3021 316.068 13.0156C316.628 12.7227 317.292 12.5762 318.061 12.5762C318.751 12.5762 319.356 12.7194 319.877 13.0059C320.398 13.2923 320.805 13.6764 321.098 14.1582C321.397 14.6335 321.547 15.1673 321.547 15.7598C321.547 16.3978 321.381 16.9674 321.049 17.4688C320.723 17.9701 320.258 18.4388 319.652 18.875L318.686 19.5684L321.645 23.0742C321.885 22.6706 322.074 22.2311 322.211 21.7559C322.354 21.2741 322.426 20.763 322.426 20.2227H324.379C324.379 21.1016 324.262 21.9154 324.027 22.6641C323.793 23.4062 323.445 24.0703 322.982 24.6562L324.916 26.9512L324.896 27H322.123L321.342 26.0723C320.801 26.4499 320.229 26.7331 319.623 26.9219C319.018 27.1107 318.376 27.2051 317.699 27.2051ZM317.787 25.3105C318.184 25.3105 318.578 25.252 318.969 25.1348C319.366 25.0111 319.74 24.8353 320.092 24.6074L316.908 20.8574L316.635 21.043C316.199 21.4141 315.902 21.7721 315.746 22.1172C315.596 22.4557 315.521 22.778 315.521 23.084C315.521 23.7285 315.723 24.2624 316.127 24.6855C316.531 25.1022 317.084 25.3105 317.787 25.3105ZM317.523 18.1914L318.578 17.4785C318.949 17.2376 319.197 16.987 319.32 16.7266C319.451 16.4596 319.516 16.1667 319.516 15.8477C319.516 15.4896 319.379 15.1738 319.105 14.9004C318.839 14.6204 318.487 14.4805 318.051 14.4805C317.582 14.4805 317.221 14.64 316.967 14.959C316.719 15.278 316.596 15.6751 316.596 16.1504C316.596 16.4564 316.671 16.7754 316.82 17.1074C316.977 17.4329 317.211 17.7943 317.523 18.1914ZM330.629 27V25.4961L332.182 25.2031V14.5879L330.629 14.2949V12.7812H341.684V16.4727H339.77L339.613 14.6855H334.643V19.0215H339.711V20.9258H334.643V25.2031L336.195 25.4961V27H330.629ZM342.895 27V25.4961L344.359 25.2031V18.2402L342.807 17.9473V16.4336H346.82V25.2031L348.275 25.4961V27H342.895ZM344.262 14.041V11.7656H346.82V14.041H344.262ZM349.33 27V25.4961L350.795 25.2031V18.2402L349.252 17.9473V16.4336H353.061L353.188 17.9668C353.539 17.4199 353.975 16.9967 354.496 16.6973C355.023 16.3913 355.619 16.2383 356.283 16.2383C357.37 16.2383 358.217 16.5736 358.822 17.2441C359.428 17.9082 359.73 18.9499 359.73 20.3691V25.2031L361.195 25.4961V27H355.893V25.4961L357.27 25.2031V20.3887C357.27 19.5879 357.11 19.0215 356.791 18.6895C356.472 18.3509 355.997 18.1816 355.365 18.1816C354.89 18.1816 354.473 18.2891 354.115 18.5039C353.764 18.7122 353.477 19.0052 353.256 19.3828V25.2031L354.594 25.4961V27H349.33ZM365.795 27.2051C364.721 27.2051 363.884 26.9284 363.285 26.375C362.686 25.8216 362.387 25.0599 362.387 24.0898C362.387 23.0938 362.794 22.2865 363.607 21.668C364.421 21.0495 365.583 20.7402 367.094 20.7402H368.705V19.8516C368.705 19.2917 368.536 18.8457 368.197 18.5137C367.865 18.1816 367.38 18.0156 366.742 18.0156C366.378 18.0156 366.055 18.0612 365.775 18.1523C365.495 18.237 365.245 18.3607 365.023 18.5234L364.799 19.9492H362.992L362.973 17.3418C363.493 17.0033 364.073 16.7363 364.711 16.541C365.349 16.3392 366.059 16.2383 366.84 16.2383C368.181 16.2383 369.236 16.554 370.004 17.1855C370.779 17.8105 371.166 18.709 371.166 19.8809V24.5391C371.166 24.6823 371.166 24.8223 371.166 24.959C371.173 25.0957 371.182 25.2292 371.195 25.3594L372.27 25.4961V27H369.057C368.992 26.7721 368.93 26.5508 368.871 26.3359C368.819 26.1211 368.78 25.9062 368.754 25.6914C368.402 26.1341 367.976 26.4987 367.475 26.7852C366.98 27.0651 366.42 27.2051 365.795 27.2051ZM366.352 25.3008C366.846 25.3008 367.309 25.1868 367.738 24.959C368.168 24.7246 368.49 24.4316 368.705 24.0801V22.3125H367.064C366.329 22.3125 365.772 22.485 365.395 22.8301C365.023 23.1686 364.838 23.5658 364.838 24.0215C364.838 24.4316 364.968 24.7474 365.229 24.9688C365.489 25.1901 365.863 25.3008 366.352 25.3008ZM373.412 27V25.4961L374.877 25.2031V18.2402L373.334 17.9473V16.4336H377.143L377.27 17.9668C377.621 17.4199 378.057 16.9967 378.578 16.6973C379.105 16.3913 379.701 16.2383 380.365 16.2383C381.452 16.2383 382.299 16.5736 382.904 17.2441C383.51 17.9082 383.812 18.9499 383.812 20.3691V25.2031L385.277 25.4961V27H379.975V25.4961L381.352 25.2031V20.3887C381.352 19.5879 381.192 19.0215 380.873 18.6895C380.554 18.3509 380.079 18.1816 379.447 18.1816C378.972 18.1816 378.555 18.2891 378.197 18.5039C377.846 18.7122 377.559 19.0052 377.338 19.3828V25.2031L378.676 25.4961V27H373.412ZM391.156 27.2051C390.167 27.2051 389.307 26.9805 388.578 26.5312C387.855 26.0755 387.296 25.4505 386.898 24.6562C386.508 23.8555 386.312 22.9342 386.312 21.8926V21.5508C386.312 20.5286 386.508 19.6172 386.898 18.8164C387.289 18.0156 387.846 17.3874 388.568 16.9316C389.298 16.4694 390.157 16.2383 391.146 16.2383C392.051 16.2383 392.839 16.3848 393.51 16.6777C394.18 16.9642 394.73 17.3223 395.16 17.752L395.17 20.5742H393.295L392.934 18.709C392.751 18.5202 392.52 18.3704 392.24 18.2598C391.96 18.1426 391.654 18.084 391.322 18.084C390.782 18.084 390.32 18.2305 389.936 18.5234C389.558 18.8164 389.268 19.2233 389.066 19.7441C388.871 20.2585 388.773 20.8607 388.773 21.5508V21.8926C388.773 22.6348 388.874 23.2598 389.076 23.7676C389.278 24.2754 389.558 24.6595 389.916 24.9199C390.281 25.1803 390.697 25.3105 391.166 25.3105C391.732 25.3105 392.191 25.1576 392.543 24.8516C392.901 24.5456 393.135 24.1224 393.246 23.582H395.375L395.404 23.6406C395.326 24.3307 395.121 24.946 394.789 25.4863C394.464 26.0202 394.001 26.4401 393.402 26.7461C392.81 27.0521 392.061 27.2051 391.156 27.2051ZM401.85 27.2051C400.854 27.2051 399.984 26.9837 399.242 26.541C398.507 26.0918 397.934 25.4733 397.523 24.6855C397.12 23.8978 396.918 22.9961 396.918 21.9805V21.5703C396.918 20.5417 397.117 19.627 397.514 18.8262C397.917 18.0254 398.471 17.3939 399.174 16.9316C399.877 16.4694 400.678 16.2383 401.576 16.2383C402.533 16.2383 403.334 16.4303 403.979 16.8145C404.63 17.1986 405.121 17.7454 405.453 18.4551C405.785 19.1582 405.951 20.0046 405.951 20.9941V22.4004H399.467L399.447 22.4492C399.473 23.0026 399.587 23.4941 399.789 23.9238C399.997 24.3535 400.29 24.6921 400.668 24.9395C401.052 25.1868 401.518 25.3105 402.064 25.3105C402.637 25.3105 403.158 25.2324 403.627 25.0762C404.096 24.9199 404.529 24.6986 404.926 24.4121L405.697 25.9551C405.281 26.3066 404.75 26.6029 404.105 26.8438C403.461 27.0846 402.709 27.2051 401.85 27.2051ZM399.506 20.6719H403.598V20.418C403.598 19.9557 403.526 19.5521 403.383 19.207C403.246 18.8555 403.028 18.582 402.729 18.3867C402.436 18.1914 402.061 18.0938 401.605 18.0938C401.208 18.0938 400.86 18.2044 400.561 18.4258C400.261 18.6471 400.02 18.9499 399.838 19.334C399.662 19.7116 399.542 20.1413 399.477 20.623L399.506 20.6719Z" fill="#202123"/>
<path d="M59.3984 50.8125V52H51.9531V50.9609L55.6797 46.8125C56.138 46.3021 56.4922 45.8698 56.7422 45.5156C56.9974 45.1562 57.1745 44.8359 57.2734 44.5547C57.3776 44.2682 57.4297 43.9766 57.4297 43.6797C57.4297 43.3047 57.3516 42.9661 57.1953 42.6641C57.0443 42.3568 56.8203 42.112 56.5234 41.9297C56.2266 41.7474 55.8672 41.6562 55.4453 41.6562C54.9401 41.6562 54.5182 41.7552 54.1797 41.9531C53.8464 42.1458 53.5964 42.4167 53.4297 42.7656C53.263 43.1146 53.1797 43.5156 53.1797 43.9688H51.7344C51.7344 43.3281 51.875 42.7422 52.1562 42.2109C52.4375 41.6797 52.8542 41.2578 53.4062 40.9453C53.9583 40.6276 54.638 40.4688 55.4453 40.4688C56.1641 40.4688 56.7786 40.5964 57.2891 40.8516C57.7995 41.1016 58.1901 41.4557 58.4609 41.9141C58.737 42.3672 58.875 42.8984 58.875 43.5078C58.875 43.8411 58.8177 44.1797 58.7031 44.5234C58.5938 44.862 58.4401 45.2005 58.2422 45.5391C58.0495 45.8776 57.8229 46.2109 57.5625 46.5391C57.3073 46.8672 57.0339 47.1901 56.7422 47.5078L53.6953 50.8125H59.3984ZM65.6953 40.5625V52H64.25V42.3672L61.3359 43.4297V42.125L65.4688 40.5625H65.6953ZM77.0859 45.4062V47.1406C77.0859 48.0729 77.0026 48.8594 76.8359 49.5C76.6693 50.1406 76.4297 50.6562 76.1172 51.0469C75.8047 51.4375 75.4271 51.7214 74.9844 51.8984C74.5469 52.0703 74.0521 52.1562 73.5 52.1562C73.0625 52.1562 72.6589 52.1016 72.2891 51.9922C71.9193 51.8828 71.5859 51.7083 71.2891 51.4688C70.9974 51.224 70.7474 50.9062 70.5391 50.5156C70.3307 50.125 70.1719 49.651 70.0625 49.0938C69.9531 48.5365 69.8984 47.8854 69.8984 47.1406V45.4062C69.8984 44.474 69.9818 43.6927 70.1484 43.0625C70.3203 42.4323 70.5625 41.9271 70.875 41.5469C71.1875 41.1615 71.5625 40.8854 72 40.7188C72.4427 40.5521 72.9375 40.4688 73.4844 40.4688C73.9271 40.4688 74.3333 40.5234 74.7031 40.6328C75.0781 40.737 75.4115 40.9062 75.7031 41.1406C75.9948 41.3698 76.2422 41.6771 76.4453 42.0625C76.6536 42.4427 76.8125 42.9089 76.9219 43.4609C77.0312 44.013 77.0859 44.6615 77.0859 45.4062ZM75.6328 47.375V45.1641C75.6328 44.6536 75.6016 44.2057 75.5391 43.8203C75.4818 43.4297 75.3958 43.0964 75.2812 42.8203C75.1667 42.5443 75.0208 42.3203 74.8438 42.1484C74.6719 41.9766 74.4714 41.8516 74.2422 41.7734C74.0182 41.6901 73.7656 41.6484 73.4844 41.6484C73.1406 41.6484 72.8359 41.7135 72.5703 41.8438C72.3047 41.9688 72.0807 42.1693 71.8984 42.4453C71.7214 42.7214 71.5859 43.0833 71.4922 43.5312C71.3984 43.9792 71.3516 44.5234 71.3516 45.1641V47.375C71.3516 47.8854 71.3802 48.3359 71.4375 48.7266C71.5 49.1172 71.5911 49.4557 71.7109 49.7422C71.8307 50.0234 71.9766 50.2552 72.1484 50.4375C72.3203 50.6198 72.5182 50.7552 72.7422 50.8438C72.9714 50.9271 73.224 50.9688 73.5 50.9688C73.8542 50.9688 74.1641 50.901 74.4297 50.7656C74.6953 50.6302 74.9167 50.4193 75.0938 50.1328C75.276 49.8411 75.4115 49.4688 75.5 49.0156C75.5885 48.5573 75.6328 48.0104 75.6328 47.375ZM86.0859 45.4062V47.1406C86.0859 48.0729 86.0026 48.8594 85.8359 49.5C85.6693 50.1406 85.4297 50.6562 85.1172 51.0469C84.8047 51.4375 84.4271 51.7214 83.9844 51.8984C83.5469 52.0703 83.0521 52.1562 82.5 52.1562C82.0625 52.1562 81.6589 52.1016 81.2891 51.9922C80.9193 51.8828 80.5859 51.7083 80.2891 51.4688C79.9974 51.224 79.7474 50.9062 79.5391 50.5156C79.3307 50.125 79.1719 49.651 79.0625 49.0938C78.9531 48.5365 78.8984 47.8854 78.8984 47.1406V45.4062C78.8984 44.474 78.9818 43.6927 79.1484 43.0625C79.3203 42.4323 79.5625 41.9271 79.875 41.5469C80.1875 41.1615 80.5625 40.8854 81 40.7188C81.4427 40.5521 81.9375 40.4688 82.4844 40.4688C82.9271 40.4688 83.3333 40.5234 83.7031 40.6328C84.0781 40.737 84.4115 40.9062 84.7031 41.1406C84.9948 41.3698 85.2422 41.6771 85.4453 42.0625C85.6536 42.4427 85.8125 42.9089 85.9219 43.4609C86.0312 44.013 86.0859 44.6615 86.0859 45.4062ZM84.6328 47.375V45.1641C84.6328 44.6536 84.6016 44.2057 84.5391 43.8203C84.4818 43.4297 84.3958 43.0964 84.2812 42.8203C84.1667 42.5443 84.0208 42.3203 83.8438 42.1484C83.6719 41.9766 83.4714 41.8516 83.2422 41.7734C83.0182 41.6901 82.7656 41.6484 82.4844 41.6484C82.1406 41.6484 81.8359 41.7135 81.5703 41.8438C81.3047 41.9688 81.0807 42.1693 80.8984 42.4453C80.7214 42.7214 80.5859 43.0833 80.4922 43.5312C80.3984 43.9792 80.3516 44.5234 80.3516 45.1641V47.375C80.3516 47.8854 80.3802 48.3359 80.4375 48.7266C80.5 49.1172 80.5911 49.4557 80.7109 49.7422C80.8307 50.0234 80.9766 50.2552 81.1484 50.4375C81.3203 50.6198 81.5182 50.7552 81.7422 50.8438C81.9714 50.9271 82.224 50.9688 82.5 50.9688C82.8542 50.9688 83.1641 50.901 83.4297 50.7656C83.6953 50.6302 83.9167 50.4193 84.0938 50.1328C84.276 49.8411 84.4115 49.4688 84.5 49.0156C84.5885 48.5573 84.6328 48.0104 84.6328 47.375ZM92.6953 40.5625V52H91.25V42.3672L88.3359 43.4297V42.125L92.4688 40.5625H92.6953ZM97.0391 51.2344C97.0391 50.9896 97.1146 50.7839 97.2656 50.6172C97.4219 50.4453 97.6458 50.3594 97.9375 50.3594C98.2292 50.3594 98.4505 50.4453 98.6016 50.6172C98.7578 50.7839 98.8359 50.9896 98.8359 51.2344C98.8359 51.474 98.7578 51.6771 98.6016 51.8438C98.4505 52.0104 98.2292 52.0938 97.9375 52.0938C97.6458 52.0938 97.4219 52.0104 97.2656 51.8438C97.1146 51.6771 97.0391 51.474 97.0391 51.2344ZM97.0469 44.3359C97.0469 44.0911 97.1224 43.8854 97.2734 43.7188C97.4297 43.5469 97.6536 43.4609 97.9453 43.4609C98.237 43.4609 98.4583 43.5469 98.6094 43.7188C98.7656 43.8854 98.8438 44.0911 98.8438 44.3359C98.8438 44.5755 98.7656 44.7786 98.6094 44.9453C98.4583 45.112 98.237 45.1953 97.9453 45.1953C97.6536 45.1953 97.4297 45.112 97.2734 44.9453C97.1224 44.7786 97.0469 44.5755 97.0469 44.3359ZM108.273 50.8125V52H100.828V50.9609L104.555 46.8125C105.013 46.3021 105.367 45.8698 105.617 45.5156C105.872 45.1562 106.049 44.8359 106.148 44.5547C106.253 44.2682 106.305 43.9766 106.305 43.6797C106.305 43.3047 106.227 42.9661 106.07 42.6641C105.919 42.3568 105.695 42.112 105.398 41.9297C105.102 41.7474 104.742 41.6562 104.32 41.6562C103.815 41.6562 103.393 41.7552 103.055 41.9531C102.721 42.1458 102.471 42.4167 102.305 42.7656C102.138 43.1146 102.055 43.5156 102.055 43.9688H100.609C100.609 43.3281 100.75 42.7422 101.031 42.2109C101.312 41.6797 101.729 41.2578 102.281 40.9453C102.833 40.6276 103.513 40.4688 104.32 40.4688C105.039 40.4688 105.654 40.5964 106.164 40.8516C106.674 41.1016 107.065 41.4557 107.336 41.9141C107.612 42.3672 107.75 42.8984 107.75 43.5078C107.75 43.8411 107.693 44.1797 107.578 44.5234C107.469 44.862 107.315 45.2005 107.117 45.5391C106.924 45.8776 106.698 46.2109 106.438 46.5391C106.182 46.8672 105.909 47.1901 105.617 47.5078L102.57 50.8125H108.273ZM116.961 45.4062V47.1406C116.961 48.0729 116.878 48.8594 116.711 49.5C116.544 50.1406 116.305 50.6562 115.992 51.0469C115.68 51.4375 115.302 51.7214 114.859 51.8984C114.422 52.0703 113.927 52.1562 113.375 52.1562C112.938 52.1562 112.534 52.1016 112.164 51.9922C111.794 51.8828 111.461 51.7083 111.164 51.4688C110.872 51.224 110.622 50.9062 110.414 50.5156C110.206 50.125 110.047 49.651 109.938 49.0938C109.828 48.5365 109.773 47.8854 109.773 47.1406V45.4062C109.773 44.474 109.857 43.6927 110.023 43.0625C110.195 42.4323 110.438 41.9271 110.75 41.5469C111.062 41.1615 111.438 40.8854 111.875 40.7188C112.318 40.5521 112.812 40.4688 113.359 40.4688C113.802 40.4688 114.208 40.5234 114.578 40.6328C114.953 40.737 115.286 40.9062 115.578 41.1406C115.87 41.3698 116.117 41.6771 116.32 42.0625C116.529 42.4427 116.688 42.9089 116.797 43.4609C116.906 44.013 116.961 44.6615 116.961 45.4062ZM115.508 47.375V45.1641C115.508 44.6536 115.477 44.2057 115.414 43.8203C115.357 43.4297 115.271 43.0964 115.156 42.8203C115.042 42.5443 114.896 42.3203 114.719 42.1484C114.547 41.9766 114.346 41.8516 114.117 41.7734C113.893 41.6901 113.641 41.6484 113.359 41.6484C113.016 41.6484 112.711 41.7135 112.445 41.8438C112.18 41.9688 111.956 42.1693 111.773 42.4453C111.596 42.7214 111.461 43.0833 111.367 43.5312C111.273 43.9792 111.227 44.5234 111.227 45.1641V47.375C111.227 47.8854 111.255 48.3359 111.312 48.7266C111.375 49.1172 111.466 49.4557 111.586 49.7422C111.706 50.0234 111.852 50.2552 112.023 50.4375C112.195 50.6198 112.393 50.7552 112.617 50.8438C112.846 50.9271 113.099 50.9688 113.375 50.9688C113.729 50.9688 114.039 50.901 114.305 50.7656C114.57 50.6302 114.792 50.4193 114.969 50.1328C115.151 49.8411 115.286 49.4688 115.375 49.0156C115.464 48.5573 115.508 48.0104 115.508 47.375ZM123.57 40.5625V52H122.125V42.3672L119.211 43.4297V42.125L123.344 40.5625H123.57ZM134.992 48.9219C134.992 49.6146 134.831 50.2031 134.508 50.6875C134.19 51.1667 133.758 51.5312 133.211 51.7812C132.669 52.0312 132.057 52.1562 131.375 52.1562C130.693 52.1562 130.078 52.0312 129.531 51.7812C128.984 51.5312 128.552 51.1667 128.234 50.6875C127.917 50.2031 127.758 49.6146 127.758 48.9219C127.758 48.4688 127.844 48.0547 128.016 47.6797C128.193 47.2995 128.44 46.9688 128.758 46.6875C129.081 46.4062 129.461 46.1901 129.898 46.0391C130.341 45.8828 130.828 45.8047 131.359 45.8047C132.057 45.8047 132.68 45.9401 133.227 46.2109C133.773 46.4766 134.203 46.8438 134.516 47.3125C134.833 47.7812 134.992 48.3177 134.992 48.9219ZM133.539 48.8906C133.539 48.4688 133.448 48.0964 133.266 47.7734C133.083 47.4453 132.828 47.1901 132.5 47.0078C132.172 46.8255 131.792 46.7344 131.359 46.7344C130.917 46.7344 130.534 46.8255 130.211 47.0078C129.893 47.1901 129.646 47.4453 129.469 47.7734C129.292 48.0964 129.203 48.4688 129.203 48.8906C129.203 49.3281 129.289 49.7031 129.461 50.0156C129.638 50.3229 129.888 50.5599 130.211 50.7266C130.539 50.888 130.927 50.9688 131.375 50.9688C131.823 50.9688 132.208 50.888 132.531 50.7266C132.854 50.5599 133.102 50.3229 133.273 50.0156C133.451 49.7031 133.539 49.3281 133.539 48.8906ZM134.727 43.5859C134.727 44.138 134.581 44.6354 134.289 45.0781C133.997 45.5208 133.599 45.8698 133.094 46.125C132.589 46.3802 132.016 46.5078 131.375 46.5078C130.724 46.5078 130.143 46.3802 129.633 46.125C129.128 45.8698 128.732 45.5208 128.445 45.0781C128.159 44.6354 128.016 44.138 128.016 43.5859C128.016 42.9245 128.159 42.362 128.445 41.8984C128.737 41.4349 129.135 41.0807 129.641 40.8359C130.146 40.5911 130.721 40.4688 131.367 40.4688C132.018 40.4688 132.596 40.5911 133.102 40.8359C133.607 41.0807 134.003 41.4349 134.289 41.8984C134.581 42.362 134.727 42.9245 134.727 43.5859ZM133.281 43.6094C133.281 43.2292 133.201 42.8932 133.039 42.6016C132.878 42.3099 132.654 42.0807 132.367 41.9141C132.081 41.7422 131.747 41.6562 131.367 41.6562C130.987 41.6562 130.654 41.737 130.367 41.8984C130.086 42.0547 129.865 42.2786 129.703 42.5703C129.547 42.862 129.469 43.2083 129.469 43.6094C129.469 44 129.547 44.3411 129.703 44.6328C129.865 44.9245 130.089 45.151 130.375 45.3125C130.661 45.474 130.995 45.5547 131.375 45.5547C131.755 45.5547 132.086 45.474 132.367 45.3125C132.654 45.151 132.878 44.9245 133.039 44.6328C133.201 44.3411 133.281 44 133.281 43.6094ZM148.031 48.3828H149.531C149.453 49.1016 149.247 49.7448 148.914 50.3125C148.581 50.8802 148.109 51.3307 147.5 51.6641C146.891 51.9922 146.13 52.1562 145.219 52.1562C144.552 52.1562 143.945 52.0312 143.398 51.7812C142.857 51.5312 142.391 51.1771 142 50.7188C141.609 50.2552 141.307 49.7005 141.094 49.0547C140.885 48.4036 140.781 47.6797 140.781 46.8828V45.75C140.781 44.9531 140.885 44.2318 141.094 43.5859C141.307 42.9349 141.612 42.3776 142.008 41.9141C142.409 41.4505 142.891 41.0938 143.453 40.8438C144.016 40.5938 144.648 40.4688 145.352 40.4688C146.211 40.4688 146.938 40.6302 147.531 40.9531C148.125 41.276 148.586 41.724 148.914 42.2969C149.247 42.8646 149.453 43.5234 149.531 44.2734H148.031C147.958 43.7422 147.823 43.2865 147.625 42.9062C147.427 42.5208 147.146 42.224 146.781 42.0156C146.417 41.8073 145.94 41.7031 145.352 41.7031C144.846 41.7031 144.401 41.7995 144.016 41.9922C143.635 42.1849 143.315 42.4583 143.055 42.8125C142.799 43.1667 142.607 43.5911 142.477 44.0859C142.346 44.5807 142.281 45.1302 142.281 45.7344V46.8828C142.281 47.4401 142.339 47.9635 142.453 48.4531C142.573 48.9427 142.753 49.3724 142.992 49.7422C143.232 50.112 143.536 50.4036 143.906 50.6172C144.276 50.8255 144.714 50.9297 145.219 50.9297C145.859 50.9297 146.37 50.8281 146.75 50.625C147.13 50.4219 147.417 50.1302 147.609 49.75C147.807 49.3698 147.948 48.9141 148.031 48.3828ZM154.875 52.1562C154.286 52.1562 153.753 52.0573 153.273 51.8594C152.799 51.6562 152.391 51.3724 152.047 51.0078C151.708 50.6432 151.448 50.2109 151.266 49.7109C151.083 49.2109 150.992 48.6641 150.992 48.0703V47.7422C150.992 47.0547 151.094 46.4427 151.297 45.9062C151.5 45.3646 151.776 44.9062 152.125 44.5312C152.474 44.1562 152.87 43.8724 153.312 43.6797C153.755 43.487 154.214 43.3906 154.688 43.3906C155.292 43.3906 155.812 43.4948 156.25 43.7031C156.693 43.9115 157.055 44.2031 157.336 44.5781C157.617 44.9479 157.826 45.3854 157.961 45.8906C158.096 46.3906 158.164 46.9375 158.164 47.5312V48.1797H151.852V47H156.719V46.8906C156.698 46.5156 156.62 46.151 156.484 45.7969C156.354 45.4427 156.146 45.151 155.859 44.9219C155.573 44.6927 155.182 44.5781 154.688 44.5781C154.359 44.5781 154.057 44.6484 153.781 44.7891C153.505 44.9245 153.268 45.1276 153.07 45.3984C152.872 45.6693 152.719 46 152.609 46.3906C152.5 46.7812 152.445 47.2318 152.445 47.7422V48.0703C152.445 48.4714 152.5 48.849 152.609 49.2031C152.724 49.5521 152.888 49.8594 153.102 50.125C153.32 50.3906 153.583 50.599 153.891 50.75C154.203 50.901 154.557 50.9766 154.953 50.9766C155.464 50.9766 155.896 50.8724 156.25 50.6641C156.604 50.4557 156.914 50.1771 157.18 49.8281L158.055 50.5234C157.872 50.7995 157.641 51.0625 157.359 51.3125C157.078 51.5625 156.732 51.7656 156.32 51.9219C155.914 52.0781 155.432 52.1562 154.875 52.1562ZM161.297 44.875V52H159.852V43.5469H161.258L161.297 44.875ZM163.938 43.5L163.93 44.8438C163.81 44.8177 163.695 44.8021 163.586 44.7969C163.482 44.7865 163.362 44.7812 163.227 44.7812C162.893 44.7812 162.599 44.8333 162.344 44.9375C162.089 45.0417 161.872 45.1875 161.695 45.375C161.518 45.5625 161.378 45.7865 161.273 46.0469C161.174 46.3021 161.109 46.5833 161.078 46.8906L160.672 47.125C160.672 46.6146 160.721 46.1354 160.82 45.6875C160.924 45.2396 161.083 44.8438 161.297 44.5C161.51 44.151 161.781 43.8802 162.109 43.6875C162.443 43.4896 162.839 43.3906 163.297 43.3906C163.401 43.3906 163.521 43.4036 163.656 43.4297C163.792 43.4505 163.885 43.474 163.938 43.5ZM169.203 43.5469V44.6562H164.633V43.5469H169.203ZM166.18 41.4922H167.625V49.9062C167.625 50.1927 167.669 50.4089 167.758 50.5547C167.846 50.7005 167.961 50.7969 168.102 50.8438C168.242 50.8906 168.393 50.9141 168.555 50.9141C168.674 50.9141 168.799 50.9036 168.93 50.8828C169.065 50.8568 169.167 50.8359 169.234 50.8203L169.242 52C169.128 52.0365 168.977 52.0703 168.789 52.1016C168.607 52.138 168.385 52.1562 168.125 52.1562C167.771 52.1562 167.445 52.0859 167.148 51.9453C166.852 51.8047 166.615 51.5703 166.438 51.2422C166.266 50.9089 166.18 50.4609 166.18 49.8984V41.4922ZM172.469 43.5469V52H171.016V43.5469H172.469ZM170.906 41.3047C170.906 41.0703 170.977 40.8724 171.117 40.7109C171.263 40.5495 171.477 40.4688 171.758 40.4688C172.034 40.4688 172.245 40.5495 172.391 40.7109C172.542 40.8724 172.617 41.0703 172.617 41.3047C172.617 41.5286 172.542 41.7214 172.391 41.8828C172.245 42.0391 172.034 42.1172 171.758 42.1172C171.477 42.1172 171.263 42.0391 171.117 41.8828C170.977 41.7214 170.906 41.5286 170.906 41.3047ZM176.719 52H175.273V42.8125C175.273 42.1719 175.398 41.6302 175.648 41.1875C175.898 40.7448 176.255 40.4089 176.719 40.1797C177.182 39.9505 177.732 39.8359 178.367 39.8359C178.742 39.8359 179.109 39.8828 179.469 39.9766C179.828 40.0651 180.198 40.1771 180.578 40.3125L180.336 41.5312C180.096 41.4375 179.818 41.349 179.5 41.2656C179.188 41.1771 178.844 41.1328 178.469 41.1328C177.849 41.1328 177.401 41.2734 177.125 41.5547C176.854 41.8307 176.719 42.25 176.719 42.8125V52ZM178.445 43.5469V44.6562H173.938V43.5469H178.445ZM181.289 43.5469V52H179.844V43.5469H181.289ZM187.172 52.1562C186.583 52.1562 186.049 52.0573 185.57 51.8594C185.096 51.6562 184.688 51.3724 184.344 51.0078C184.005 50.6432 183.745 50.2109 183.562 49.7109C183.38 49.2109 183.289 48.6641 183.289 48.0703V47.7422C183.289 47.0547 183.391 46.4427 183.594 45.9062C183.797 45.3646 184.073 44.9062 184.422 44.5312C184.771 44.1562 185.167 43.8724 185.609 43.6797C186.052 43.487 186.51 43.3906 186.984 43.3906C187.589 43.3906 188.109 43.4948 188.547 43.7031C188.99 43.9115 189.352 44.2031 189.633 44.5781C189.914 44.9479 190.122 45.3854 190.258 45.8906C190.393 46.3906 190.461 46.9375 190.461 47.5312V48.1797H184.148V47H189.016V46.8906C188.995 46.5156 188.917 46.151 188.781 45.7969C188.651 45.4427 188.443 45.151 188.156 44.9219C187.87 44.6927 187.479 44.5781 186.984 44.5781C186.656 44.5781 186.354 44.6484 186.078 44.7891C185.802 44.9245 185.565 45.1276 185.367 45.3984C185.169 45.6693 185.016 46 184.906 46.3906C184.797 46.7812 184.742 47.2318 184.742 47.7422V48.0703C184.742 48.4714 184.797 48.849 184.906 49.2031C185.021 49.5521 185.185 49.8594 185.398 50.125C185.617 50.3906 185.88 50.599 186.188 50.75C186.5 50.901 186.854 50.9766 187.25 50.9766C187.76 50.9766 188.193 50.8724 188.547 50.6641C188.901 50.4557 189.211 50.1771 189.477 49.8281L190.352 50.5234C190.169 50.7995 189.938 51.0625 189.656 51.3125C189.375 51.5625 189.029 51.7656 188.617 51.9219C188.211 52.0781 187.729 52.1562 187.172 52.1562ZM197.477 50.3594V40H198.93V52H197.602L197.477 50.3594ZM191.789 47.8672V47.7031C191.789 47.0573 191.867 46.4714 192.023 45.9453C192.185 45.4141 192.411 44.9583 192.703 44.5781C193 44.1979 193.352 43.9062 193.758 43.7031C194.169 43.4948 194.628 43.3906 195.133 43.3906C195.664 43.3906 196.128 43.4844 196.523 43.6719C196.924 43.8542 197.263 44.1224 197.539 44.4766C197.82 44.8255 198.042 45.2474 198.203 45.7422C198.365 46.237 198.477 46.7969 198.539 47.4219V48.1406C198.482 48.7604 198.37 49.3177 198.203 49.8125C198.042 50.3073 197.82 50.7292 197.539 51.0781C197.263 51.4271 196.924 51.6953 196.523 51.8828C196.122 52.0651 195.654 52.1562 195.117 52.1562C194.622 52.1562 194.169 52.0495 193.758 51.8359C193.352 51.6224 193 51.3229 192.703 50.9375C192.411 50.5521 192.185 50.099 192.023 49.5781C191.867 49.0521 191.789 48.4818 191.789 47.8672ZM193.242 47.7031V47.8672C193.242 48.2891 193.284 48.6849 193.367 49.0547C193.456 49.4245 193.591 49.75 193.773 50.0312C193.956 50.3125 194.188 50.5339 194.469 50.6953C194.75 50.8516 195.086 50.9297 195.477 50.9297C195.956 50.9297 196.349 50.8281 196.656 50.625C196.969 50.4219 197.219 50.1536 197.406 49.8203C197.594 49.487 197.74 49.125 197.844 48.7344V46.8516C197.781 46.5651 197.69 46.2891 197.57 46.0234C197.456 45.7526 197.305 45.513 197.117 45.3047C196.935 45.0911 196.708 44.9219 196.438 44.7969C196.172 44.6719 195.857 44.6094 195.492 44.6094C195.096 44.6094 194.755 44.6927 194.469 44.8594C194.188 45.0208 193.956 45.2448 193.773 45.5312C193.591 45.8125 193.456 46.1406 193.367 46.5156C193.284 46.8854 193.242 47.2812 193.242 47.7031Z" fill="#54577A"/>
<defs>
<clipPath id="clip0_10231_6160">
<rect width="36" height="61" fill="white" transform="translate(0 0.5)"/>
</clipPath>
</defs>
</svg>
